<svg preserveAspectRatio="none" viewBox="0 0 844 703" fill="none" xmlns="http://www.w3.org/2000/svg">
<g clip-path="url(#clip0_9511_132596)">
<rect width="844" height="703" fill="#24163A"/>
<g filter="url(#filter0_f_9511_132596)">
<path fill-rule="evenodd" clip-rule="evenodd" d="M284.605 471.094C290.926 446.358 313.803 428.034 341.056 428.034C344.396 428.034 347.67 428.309 350.856 428.838C363.574 392.58 398.738 366.519 440.126 366.519C476.282 366.519 507.688 386.408 523.53 415.608C532.125 411.738 541.693 409.579 551.777 409.579C587.706 409.579 617.09 436.983 619.267 471.584C637.18 474.46 650.847 489.671 650.847 508.003C650.847 528.388 633.95 544.912 613.106 544.912H474.07C463.537 548.886 452.092 551.064 440.126 551.064C428.16 551.064 416.715 548.886 406.182 544.912H282.871C262.028 544.912 245.13 528.388 245.13 508.003C245.13 487.619 262.028 471.094 282.871 471.094H284.605Z" fill="url(#paint0_linear_9511_132596)"/>
</g>
<g filter="url(#filter1_f_9511_132596)">
<path fill-rule="evenodd" clip-rule="evenodd" d="M506.317 295.397C493.886 344.393 448.899 380.687 395.305 380.687C388.737 380.687 382.298 380.142 376.033 379.095C351.023 450.911 281.872 502.531 200.481 502.531C129.379 502.531 67.6173 463.137 36.4652 405.299C19.5616 412.965 0.74604 417.24 -19.0835 417.24C-89.7388 417.24 -147.523 362.961 -151.805 294.427C-187.032 288.73 -213.908 258.602 -213.908 222.291C-213.908 181.915 -180.679 149.184 -139.689 149.184L133.728 149.184C154.442 141.314 176.95 137 200.481 137C224.011 137 246.519 141.314 267.233 149.184L509.726 149.184C550.716 149.184 583.945 181.915 583.945 222.291C583.945 262.666 550.716 295.397 509.726 295.397L506.317 295.397Z" fill="url(#paint1_linear_9511_132596)" fill-opacity="0.4"/>
</g>
<g opacity="0.7">
<path opacity="0.4" d="M642.843 212.462L641.543 215.293L642.843 218.124L640.015 216.822L637.188 218.124L638.488 215.293L637.188 212.462L640.015 213.764L642.843 212.462Z" fill="white"/>
<ellipse opacity="0.6" cx="420.801" cy="252.258" rx="2.63264" ry="2.63601" fill="#A799FF"/>
<ellipse cx="754.71" cy="227.082" rx="2.63264" ry="2.63601" fill="#A799FF"/>
<ellipse opacity="0.5" cx="250.491" cy="316.282" rx="2.63264" ry="2.63601" fill="#A799FF"/>
<ellipse cx="250.308" cy="207.43" rx="1.7131" ry="1.71528" transform="rotate(135 250.308 207.43)" fill="#A799FF"/>
<circle opacity="0.7" cx="793.74" cy="286.149" r="1.71528" fill="#90F0D3"/>
<path d="M564.747 223.836L565.509 229.004L570.67 229.767L565.509 230.53L564.747 235.698L563.985 230.53L558.823 229.767L563.985 229.004L564.747 223.836Z" fill="#A799FF"/>
<ellipse opacity="0.6" cx="158.202" cy="257.535" rx="1.71528" ry="1.71748" fill="#A799FF"/>
</g>
<g filter="url(#filter2_f_9511_132596)">
<path fill-rule="evenodd" clip-rule="evenodd" d="M580.327 416.795C589.276 381.634 621.665 355.589 660.249 355.589C664.977 355.589 669.613 355.981 674.124 356.732C692.129 305.196 741.914 268.154 800.511 268.154C851.7 268.154 896.164 296.423 918.592 337.928C930.761 332.427 944.307 329.359 958.583 329.359C1009.45 329.359 1051.05 368.31 1054.13 417.49C1079.5 421.578 1098.85 443.199 1098.85 469.256C1098.85 498.23 1074.92 521.718 1045.41 521.718H848.568C833.656 527.365 817.451 530.461 800.511 530.461C783.57 530.461 767.366 527.365 752.453 521.718H577.873C548.363 521.718 524.44 498.23 524.44 469.256C524.44 440.282 548.363 416.795 577.873 416.795H580.327Z" fill="url(#paint2_linear_9511_132596)"/>
</g>
<g style="mix-blend-mode:color-dodge" opacity="0.4" filter="url(#filter3_f_9511_132596)">
<circle cx="758.539" cy="499" r="296" fill="url(#paint3_linear_9511_132596)"/>
</g>
<g opacity="0.6">
<ellipse opacity="0.2" cx="118.779" cy="575.871" rx="2.79579" ry="2.79936" fill="#90F0D3"/>
<ellipse opacity="0.4" cx="259.175" cy="568.824" rx="1.82158" ry="1.82391" fill="#A799FF"/>
<path opacity="0.5" d="M330.223 680.015L327.993 683.022L330.223 686.028L327.22 683.796L324.218 686.028L326.448 683.022L324.218 680.015L327.22 682.248L330.223 680.015Z" fill="white"/>
<ellipse opacity="0.3" cx="430.752" cy="658.186" rx="1.81926" ry="1.82158" fill="#A799FF"/>
<ellipse opacity="0.5" cx="330.082" cy="602.087" rx="2.79579" ry="2.79936" fill="#A799FF"/>
<ellipse opacity="0.4" cx="5.32971" cy="549.218" rx="1.81926" ry="1.82158" transform="rotate(135 5.32971 549.218)" fill="#A799FF"/>
<circle opacity="0.7" cx="235.6" cy="698.798" r="1.82158" fill="#90F0D3"/>
<path d="M128.346 649.615L129.111 655.148L134.636 655.914L129.111 656.68L128.346 662.212L127.581 656.68L122.055 655.914L127.581 655.148L128.346 649.615Z" fill="#A799FF"/>
<path d="M53.4881 680.761L52.1075 683.767L53.4881 686.774L50.4855 685.391L47.4828 686.774L48.8635 683.767L47.4828 680.761L50.4855 682.143L53.4881 680.761Z" fill="white"/>
</g>
<path d="M59.7152 276L60.622 284.808L69.4303 285.715L60.622 286.622L59.7152 295.43L58.8084 286.622L50.0001 285.715L58.8084 284.808L59.7152 276Z" fill="#A799FF"/>
<path opacity="0.7" d="M527.593 599.256L528.5 608.064L537.309 608.971L528.5 609.878L527.593 618.686L526.687 609.878L517.878 608.971L526.687 608.064L527.593 599.256Z" fill="white"/>
<g style="mix-blend-mode:color-dodge" opacity="0.9" filter="url(#filter4_f_9511_132596)">
<ellipse cx="133.539" cy="445.5" rx="397.5" ry="417" transform="rotate(90 133.539 445.5)" fill="url(#paint4_linear_9511_132596)"/>
</g>
<g style="mix-blend-mode:color-dodge" opacity="0.9" filter="url(#filter5_f_9511_132596)">
<circle cx="705.039" cy="520.5" r="262.5" transform="rotate(-180 705.039 520.5)" fill="url(#paint5_linear_9511_132596)"/>
</g>
<g opacity="0.6">
<ellipse opacity="0.5" cx="845.601" cy="622.879" rx="2.16788" ry="2.17065" fill="#90F0D3"/>
<ellipse cx="742.487" cy="580.086" rx="2.16788" ry="2.17065" fill="#A799FF"/>
<ellipse cx="811.023" cy="524.821" rx="1.41067" ry="1.41247" transform="rotate(135 811.023 524.821)" fill="#A799FF"/>
<path opacity="0.5" d="M636.314 562.374L635.888 559.503L633.017 559.077L635.887 558.655L636.31 555.785L636.735 558.656L639.607 559.082L636.736 559.504L636.314 562.374Z" fill="white"/>
<ellipse cx="730.706" cy="686.916" rx="2.16788" ry="2.17065" fill="#A799FF"/>
<ellipse opacity="0.6" cx="645.756" cy="632.905" rx="1.41247" ry="1.41427" fill="#A799FF"/>
</g>
</g>
<defs>
<filter id="filter0_f_9511_132596" x="211.128" y="332.516" width="473.723" height="252.55" filterUnits="userSpaceOnUse" color-interpolation-filters="sRGB">
<feFlood flood-opacity="0" result="BackgroundImageFix"/>
<feBlend mode="normal" in="SourceGraphic" in2="BackgroundImageFix" result="shape"/>
<feGaussianBlur stdDeviation="17.0014" result="effect1_foregroundBlur_9511_132596"/>
</filter>
<filter id="filter1_f_9511_132596" x="-247.911" y="102.997" width="865.859" height="433.536" filterUnits="userSpaceOnUse" color-interpolation-filters="sRGB">
<feFlood flood-opacity="0" result="BackgroundImageFix"/>
<feBlend mode="normal" in="SourceGraphic" in2="BackgroundImageFix" result="shape"/>
<feGaussianBlur stdDeviation="17.0014" result="effect1_foregroundBlur_9511_132596"/>
</filter>
<filter id="filter2_f_9511_132596" x="490.437" y="234.151" width="642.411" height="330.314" filterUnits="userSpaceOnUse" color-interpolation-filters="sRGB">
<feFlood flood-opacity="0" result="BackgroundImageFix"/>
<feBlend mode="normal" in="SourceGraphic" in2="BackgroundImageFix" result="shape"/>
<feGaussianBlur stdDeviation="17.0014" result="effect1_foregroundBlur_9511_132596"/>
</filter>
<filter id="filter3_f_9511_132596" x="262.539" y="3" width="992" height="992" filterUnits="userSpaceOnUse" color-interpolation-filters="sRGB">
<feFlood flood-opacity="0" result="BackgroundImageFix"/>
<feBlend mode="normal" in="SourceGraphic" in2="BackgroundImageFix" result="shape"/>
<feGaussianBlur stdDeviation="100" result="effect1_foregroundBlur_9511_132596"/>
</filter>
<filter id="filter4_f_9511_132596" x="-539.461" y="-208" width="1346" height="1307" filterUnits="userSpaceOnUse" color-interpolation-filters="sRGB">
<feFlood flood-opacity="0" result="BackgroundImageFix"/>
<feBlend mode="normal" in="SourceGraphic" in2="BackgroundImageFix" result="shape"/>
<feGaussianBlur stdDeviation="128" result="effect1_foregroundBlur_9511_132596"/>
</filter>
<filter id="filter5_f_9511_132596" x="186.539" y="2" width="1037" height="1037" filterUnits="userSpaceOnUse" color-interpolation-filters="sRGB">
<feFlood flood-opacity="0" result="BackgroundImageFix"/>
<feBlend mode="normal" in="SourceGraphic" in2="BackgroundImageFix" result="shape"/>
<feGaussianBlur stdDeviation="128" result="effect1_foregroundBlur_9511_132596"/>
</filter>
<linearGradient id="paint0_linear_9511_132596" x1="447.989" y1="366.519" x2="447.989" y2="551.064" gradientUnits="userSpaceOnUse">
<stop stop-color="#F86FE2" stop-opacity="0.23"/>
<stop offset="1" stop-color="#4B66F2" stop-opacity="0.05"/>
</linearGradient>
<linearGradient id="paint1_linear_9511_132596" x1="185.018" y1="596.5" x2="185.018" y2="137" gradientUnits="userSpaceOnUse">
<stop stop-color="#FF94AE"/>
<stop offset="0.196699" stop-color="#7D40FF" stop-opacity="0.803301"/>
<stop offset="1" stop-color="#2C2A86" stop-opacity="0"/>
</linearGradient>
<linearGradient id="paint2_linear_9511_132596" x1="811.642" y1="268.154" x2="811.642" y2="530.461" gradientUnits="userSpaceOnUse">
<stop stop-color="#514ECA"/>
<stop offset="1" stop-color="#2C2A86" stop-opacity="0"/>
</linearGradient>
<linearGradient id="paint3_linear_9511_132596" x1="366.814" y1="298.725" x2="1054.54" y2="955.899" gradientUnits="userSpaceOnUse">
<stop stop-color="#808CFF"/>
<stop offset="1" stop-color="#FC63FF"/>
</linearGradient>
<linearGradient id="paint4_linear_9511_132596" x1="-392.51" y1="163.356" x2="525.585" y2="1097.06" gradientUnits="userSpaceOnUse">
<stop stop-color="#808CFF"/>
<stop offset="1" stop-color="#FC63FF"/>
</linearGradient>
<linearGradient id="paint5_linear_9511_132596" x1="357.648" y1="342.891" x2="967.539" y2="925.689" gradientUnits="userSpaceOnUse">
<stop offset="0.691499" stop-color="#808CFF"/>
<stop offset="1" stop-color="#FC63FF"/>
</linearGradient>
<clipPath id="clip0_9511_132596">
<rect width="844" height="703" fill="white"/>
</clipPath>
</defs>
</svg>
