<svg width="32" height="32" viewBox="0 0 32 32" fill="none" xmlns="http://www.w3.org/2000/svg">
<g id="Logo">
<g id="Favicon">
<path d="M16 0C17.461 1.69611 19.0723 3.27125 20.8148 4.70713C19.6537 8.27674 19.0287 12.0692 19.0287 16C19.0287 19.9308 19.6537 23.7233 20.8148 27.2929C19.0723 28.7288 17.461 30.3039 16 32C14.539 30.3039 12.9277 28.7287 11.1852 27.2929C12.3463 23.7233 12.9713 19.9308 12.9713 16C12.9713 12.0692 12.3463 8.27675 11.1852 4.70713C12.9277 3.27126 14.539 1.69612 16 0Z" fill="white"/>
<path d="M7.85464 24.8249C6.01021 23.5995 4.05274 22.5166 2 21.5929C2.56942 19.8237 2.87573 17.9458 2.87573 16C2.87573 14.0542 2.56942 12.1763 2 10.4071C4.05273 9.48345 6.0102 8.40049 7.85464 7.17508C8.55991 10.0081 8.93309 12.9628 8.93309 16C8.93309 19.0372 8.55991 21.9919 7.85464 24.8249Z" fill="white"/>
<path d="M23.0669 16C23.0669 19.0373 23.4401 21.9919 24.1454 24.8249C25.9898 23.5995 27.9473 22.5166 30 21.5929C29.4306 19.8237 29.1243 17.9458 29.1243 16C29.1243 14.0542 29.4306 12.1763 30 10.4071C27.9473 9.48345 25.9898 8.40049 24.1454 7.17507C23.4401 10.0081 23.0669 12.9628 23.0669 16Z" fill="white"/>
</g>
</g>
</svg>