<svg preserveAspectRatio="none" viewBox="0 0 844 280" fill="none" xmlns="http://www.w3.org/2000/svg">
<g clip-path="url(#clip0_9511_133829)">
<rect width="844" height="280" fill="#24163A"/>
<g opacity="0.7">
<path opacity="0.4" d="M623.509 93.4622L622.209 96.2932L623.509 99.1243L620.681 97.8225L617.854 99.1243L619.154 96.2932L617.854 93.4622L620.681 94.7639L623.509 93.4622Z" fill="white"/>
<ellipse cx="735.376" cy="108.082" rx="2.63264" ry="2.63601" fill="#A799FF"/>
<ellipse opacity="0.5" cx="231.157" cy="197.282" rx="2.63264" ry="2.63601" fill="#A799FF"/>
<ellipse cx="230.974" cy="88.4298" rx="1.7131" ry="1.71528" transform="rotate(135 230.974 88.4298)" fill="#A799FF"/>
<circle opacity="0.7" cx="774.406" cy="167.149" r="1.71528" fill="#90F0D3"/>
<path d="M545.413 104.836L546.175 110.004L551.336 110.767L546.175 111.53L545.413 116.698L544.651 111.53L539.49 110.767L544.651 110.004L545.413 104.836Z" fill="#A799FF"/>
<ellipse opacity="0.6" cx="138.868" cy="138.535" rx="1.71528" ry="1.71748" fill="#A799FF"/>
</g>
<g style="mix-blend-mode:color-dodge" opacity="0.4" filter="url(#filter0_f_9511_133829)">
<circle cx="801.205" cy="380" r="296" fill="url(#paint0_linear_9511_133829)"/>
</g>
<path d="M102.381 157L103.288 165.808L112.096 166.715L103.288 167.622L102.381 176.43L101.475 167.622L92.6663 166.715L101.475 165.808L102.381 157Z" fill="#A799FF"/>
</g>
<defs>
<filter id="filter0_f_9511_133829" x="305.205" y="-116" width="992" height="992" filterUnits="userSpaceOnUse" color-interpolation-filters="sRGB">
<feFlood flood-opacity="0" result="BackgroundImageFix"/>
<feBlend mode="normal" in="SourceGraphic" in2="BackgroundImageFix" result="shape"/>
<feGaussianBlur stdDeviation="100" result="effect1_foregroundBlur_9511_133829"/>
</filter>
<linearGradient id="paint0_linear_9511_133829" x1="409.48" y1="179.725" x2="1097.2" y2="836.899" gradientUnits="userSpaceOnUse">
<stop stop-color="#808CFF"/>
<stop offset="1" stop-color="#FC63FF"/>
</linearGradient>
<clipPath id="clip0_9511_133829">
<rect width="844" height="280" fill="white"/>
</clipPath>
</defs>
</svg>
