<svg width="20" height="20" viewBox="0 0 20 20" fill="none" xmlns="http://www.w3.org/2000/svg">
<g style="mix-blend-mode:multiply" clip-path="url(#clip0_9747_114077)">
<path opacity="0.12" d="M20 10C20 15.5228 15.5228 20 10 20C4.47715 20 0 15.5228 0 10C0 4.47715 4.47715 0 10 0C15.5228 0 20 4.47715 20 10ZM2.4 10C2.4 14.1974 5.80264 17.6 10 17.6C14.1974 17.6 17.6 14.1974 17.6 10C17.6 5.80264 14.1974 2.4 10 2.4C5.80264 2.4 2.4 5.80264 2.4 10Z" fill="#6851FF"/>
<path d="M10 1.2C10 0.537258 10.5392 -0.00742511 11.1971 0.0719144C12.0991 0.18068 12.984 0.412094 13.8268 0.761205C15.0401 1.26375 16.1425 2.00035 17.0711 2.92893C17.9997 3.85752 18.7362 4.95991 19.2388 6.17317C19.5879 7.016 19.8193 7.90086 19.9281 8.80287C20.0074 9.46084 19.4627 10 18.8 10C18.1373 10 17.6097 9.45947 17.5055 8.80497C17.412 8.21822 17.2499 7.64307 17.0215 7.09161C16.6395 6.16953 16.0797 5.33171 15.374 4.62599C14.6683 3.92026 13.8305 3.36045 12.9084 2.97852C12.3569 2.75009 11.7818 2.58797 11.195 2.49454C10.5405 2.39033 10 1.86274 10 1.2Z" fill="#6851FF"/>
</g>
<defs>
<clipPath id="clip0_9747_114077">
<rect width="20" height="20" fill="white"/>
</clipPath>
</defs>
</svg>
