<svg width="24" height="24" viewBox="0 0 24 24" fill="none" xmlns="http://www.w3.org/2000/svg">
<path fill-rule="evenodd" clip-rule="evenodd" d="M12 2C6.47581 2 2 6.51613 2 12C2 17.5242 6.47581 22 12 22C17.4839 22 22 17.5242 22 12C22 6.51613 17.4839 2 12 2ZM11.9999 6.19352C11.2741 6.19352 10.7096 6.79835 10.7096 7.48384C10.7096 8.20964 11.2741 8.77416 11.9999 8.77416C12.6854 8.77416 13.2903 8.20964 13.2903 7.48384C13.2903 6.79835 12.6854 6.19352 11.9999 6.19352ZM10.5483 15.8709C10.2661 15.8709 10.0645 16.1129 10.0645 16.3548V16.6774C10.0645 16.9596 10.2661 17.1613 10.5483 17.1613H13.4515C13.6935 17.1613 13.9354 16.9596 13.9354 16.6774V16.3548C13.9354 16.1129 13.6935 15.8709 13.4515 15.8709H12.9677V10.2258C12.9677 9.98384 12.7257 9.7419 12.4838 9.7419H10.5483C10.2661 9.7419 10.0645 9.98384 10.0645 10.2258V10.5484C10.0645 10.8306 10.2661 11.0322 10.5483 11.0322H11.0322V15.8709H10.5483Z" fill="#4E4D52"/>
</svg>