<svg width="89" height="32" viewBox="0 0 89 32" fill="none" xmlns="http://www.w3.org/2000/svg">
<path fill-rule="evenodd" clip-rule="evenodd" d="M75.9048 11.2956C76.8444 11.2956 77.606 10.5339 77.606 9.59434C77.606 8.65475 76.8444 7.89307 75.9048 7.89307C74.9652 7.89307 74.2035 8.65475 74.2035 9.59434C74.2035 10.5339 74.9652 11.2956 75.9048 11.2956ZM35.0742 9.38161H38.5828L42.2886 18.2287H42.4463L46.152 9.38161H49.6606V22.5494H46.901V13.9788H46.7893L43.307 22.4852H41.4278L37.9455 13.9466H37.8338V22.5494H35.0742V9.38161ZM54.9925 22.7359C54.0288 22.7359 53.2294 22.4894 52.5943 21.9965C51.9592 21.5036 51.6416 20.7684 51.6416 19.7911C51.6416 19.0539 51.819 18.4752 52.1738 18.0552C52.5286 17.6351 52.9929 17.3286 53.5667 17.1357C54.1449 16.9385 54.7669 16.81 55.4327 16.7499C56.3088 16.6642 56.9352 16.5742 57.3119 16.4799C57.6886 16.3856 57.8769 16.1798 57.8769 15.8627V15.8241C57.8769 15.4169 57.7455 15.1018 57.4827 14.8789C57.2243 14.656 56.8563 14.5446 56.3789 14.5446C55.8751 14.5446 55.4743 14.6517 55.1765 14.8661C54.8786 15.0804 54.6815 15.3526 54.5851 15.6826L51.9964 15.4769C52.1891 14.5767 52.6666 13.863 53.4287 13.3358C54.1953 12.8086 55.1831 12.545 56.392 12.545C57.141 12.545 57.8419 12.6607 58.4946 12.8922C59.1472 13.1236 59.6729 13.4858 60.0715 13.9788C60.4744 14.4674 60.6759 15.104 60.6759 15.8884V22.5494H58.0215V21.1799H57.9426C57.6973 21.6386 57.3294 22.0136 56.8388 22.3051C56.3526 22.5923 55.7372 22.7359 54.9925 22.7359ZM55.7941 20.8456C56.4073 20.8456 56.9111 20.672 57.3053 20.3248C57.6995 19.9733 57.8966 19.5382 57.8966 19.0196V17.9716C57.7871 18.0444 57.6163 18.1087 57.3841 18.1645C57.1564 18.2202 56.9111 18.2695 56.6483 18.3123C56.3898 18.3509 56.1577 18.3852 55.9518 18.4152C55.4612 18.4838 55.0648 18.6188 54.7625 18.8203C54.4647 19.0217 54.3158 19.3154 54.3158 19.7011C54.3158 20.0783 54.4537 20.3634 54.7297 20.5563C55.01 20.7492 55.3648 20.8456 55.7941 20.8456ZM64.1944 25.6099C64.9697 26.1329 66.0363 26.3944 67.3942 26.3944C68.3579 26.3944 69.2099 26.2529 69.9501 25.97C70.6904 25.6871 71.2708 25.267 71.6913 24.7098C72.1162 24.1526 72.3286 23.4646 72.3286 22.6459V12.6736H69.5493V14.3324H69.4442C69.3215 14.0624 69.142 13.7902 68.9054 13.5158C68.6689 13.2415 68.3601 13.0122 67.979 12.8279C67.5979 12.6393 67.1248 12.545 66.5598 12.545C65.8239 12.545 65.1449 12.7336 64.5229 13.1108C63.9053 13.4837 63.4082 14.0431 63.0314 14.7889C62.6591 15.5347 62.473 16.4692 62.473 17.5922C62.473 18.6853 62.6547 19.5875 63.0183 20.2991C63.3862 21.0106 63.879 21.54 64.4967 21.8872C65.1187 22.2344 65.8085 22.408 66.5663 22.408C67.3723 22.408 68.0075 22.243 68.4718 21.9129C68.9361 21.5786 69.2602 21.2078 69.4442 20.8006H69.5625V22.6073C69.5625 23.2546 69.3632 23.7196 68.9646 24.0025C68.5703 24.2854 68.0688 24.4269 67.4599 24.4269C66.8423 24.4269 66.367 24.3154 66.0341 24.0926C65.7056 23.8739 65.4844 23.6318 65.3705 23.366L62.7818 23.7068C62.9482 24.4526 63.4191 25.087 64.1944 25.6099ZM69.0171 19.6175C68.6492 20.1062 68.1279 20.3505 67.4534 20.3505C66.7656 20.3505 66.24 20.1019 65.8764 19.6047C65.5129 19.1075 65.3311 18.4324 65.3311 17.5794C65.3311 16.7392 65.5107 16.0534 65.8699 15.5219C66.2334 14.9904 66.7613 14.7246 67.4534 14.7246C68.1323 14.7246 68.6557 14.9839 69.0237 15.5026C69.3916 16.0213 69.5756 16.7135 69.5756 17.5794C69.5756 18.4495 69.3894 19.1289 69.0171 19.6175ZM74.556 22.5494V12.6736H77.355V22.5494H74.556ZM81.4894 22.0994C82.2341 22.528 83.1233 22.7423 84.157 22.7423C85.055 22.7423 85.8325 22.5837 86.4895 22.2665C87.1466 21.9451 87.6613 21.4971 88.0336 20.9228C88.4103 20.3484 88.6205 19.684 88.6643 18.9296H86.023C85.9398 19.4568 85.7339 19.864 85.4054 20.1512C85.0769 20.4341 84.6717 20.5756 84.1899 20.5756C83.5372 20.5756 83.0138 20.3184 82.6195 19.804C82.2297 19.2853 82.0348 18.5545 82.0348 17.6115C82.0348 16.6771 82.2319 15.9548 82.6261 15.4447C83.0203 14.9346 83.5416 14.6796 84.1899 14.6796C84.7024 14.6796 85.1163 14.8318 85.4317 15.1361C85.7515 15.4362 85.9486 15.8326 86.023 16.3256H88.6643C88.6249 15.5626 88.4125 14.8982 88.027 14.3324C87.6459 13.7666 87.1225 13.3272 86.4567 13.0143C85.7953 12.7014 85.0243 12.545 84.1439 12.545C83.1233 12.545 82.2429 12.7614 81.5026 13.1944C80.7623 13.623 80.1907 14.221 79.7877 14.9882C79.3891 15.7512 79.1898 16.6385 79.1898 17.6501C79.1898 18.6488 79.3869 19.5318 79.7811 20.2991C80.1797 21.0663 80.7492 21.6664 81.4894 22.0994Z" fill="white"/>
<path fill-rule="evenodd" clip-rule="evenodd" d="M13.2705 -5.80074e-07C14.6553 1.69602 16.1826 3.27107 17.8342 4.70688C16.7336 8.2766 16.141 12.0692 16.141 16.0001C16.141 19.931 16.7335 23.7234 17.8341 27.2931C16.1825 28.7289 14.6552 30.304 13.2704 32C11.8855 30.3039 10.3581 28.7287 8.70636 27.2928C9.80691 23.7232 10.3994 19.9308 10.3994 16C10.3994 12.0692 9.80692 8.27681 8.70638 4.70722C10.3581 3.27132 11.8856 1.69615 13.2705 -5.80074e-07ZM5.5497 24.8252C3.80122 23.5996 1.94558 22.5166 -0.000380506 21.5928C0.539363 19.8237 0.829717 17.9457 0.829717 16C0.829717 14.0542 0.539369 12.1763 -0.000366666 10.4071C1.94557 9.48344 3.8012 8.4004 5.54966 7.17489C6.21823 10.008 6.57198 12.9628 6.57198 16.0001C6.57198 19.0374 6.21824 21.9921 5.5497 24.8252ZM19.9691 16C19.9691 19.0373 20.3228 21.9919 20.9914 24.825C22.7397 23.5995 24.5952 22.5166 26.541 21.5929C26.0012 19.8237 25.7109 17.9458 25.7109 16C25.7109 14.0542 26.0013 12.1762 26.541 10.407C24.5952 9.48335 22.7397 8.40038 20.9914 7.17496C20.3229 10.008 19.9691 12.9627 19.9691 16Z" fill="white"/>
</svg>
