<svg width="832" height="300" viewBox="0 0 832 300" fill="none" xmlns="http://www.w3.org/2000/svg">
<path fill-rule="evenodd" clip-rule="evenodd" d="M711.611 105.897C720.42 105.897 727.561 98.7561 727.561 89.9475C727.561 81.1389 720.42 73.998 711.611 73.998C702.803 73.998 695.662 81.1389 695.662 89.9475C695.662 98.7561 702.803 105.897 711.611 105.897ZM328.824 87.9531H361.717L396.459 170.895H397.937L432.678 87.9531H465.572V211.402H439.7V131.052H438.653L406.006 210.799H388.389L355.742 130.75H354.695V211.402H328.824V87.9531ZM515.558 213.15C506.524 213.15 499.029 210.839 493.075 206.218C487.121 201.596 484.143 194.705 484.143 185.543C484.143 178.631 485.806 173.206 489.133 169.268C492.459 165.329 496.812 162.456 502.191 160.648C507.612 158.799 513.443 157.594 519.685 157.031C527.898 156.228 533.771 155.384 537.302 154.5C540.834 153.615 542.6 151.687 542.6 148.713V148.351C542.6 144.534 541.368 141.58 538.904 139.49C536.481 137.401 533.031 136.356 528.555 136.356C523.833 136.356 520.075 137.361 517.283 139.37C514.491 141.379 512.643 143.931 511.739 147.025L487.47 145.096C489.276 136.657 493.753 129.967 500.898 125.024C508.084 120.081 517.345 117.61 528.679 117.61C535.701 117.61 542.271 118.695 548.39 120.865C554.509 123.035 559.436 126.43 563.173 131.052C566.951 135.633 568.84 141.6 568.84 148.954V211.402H543.955V198.562H543.216C540.916 202.862 537.467 206.378 532.867 209.111C528.309 211.803 522.539 213.15 515.558 213.15ZM523.073 195.428C528.822 195.428 533.545 193.801 537.241 190.546C540.937 187.25 542.785 183.172 542.785 178.309V168.484C541.758 169.167 540.156 169.77 537.98 170.292C535.844 170.815 533.545 171.277 531.081 171.679C528.658 172.04 526.482 172.362 524.552 172.643C519.952 173.286 516.236 174.552 513.402 176.441C510.61 178.329 509.214 181.082 509.214 184.699C509.214 188.235 510.507 190.907 513.094 192.716C515.722 194.524 519.049 195.428 523.073 195.428ZM601.826 240.094C609.095 244.996 619.094 247.448 631.824 247.448C640.859 247.448 648.846 246.121 655.786 243.469C662.726 240.817 668.167 236.879 672.109 231.655C676.093 226.431 678.084 219.981 678.084 212.306V118.815H652.028V134.367H651.043C649.893 131.835 648.209 129.283 645.992 126.712C643.774 124.14 640.879 121.99 637.306 120.262C633.734 118.494 629.299 117.61 624.001 117.61C617.102 117.61 610.737 119.378 604.906 122.914C599.116 126.41 594.455 131.654 590.923 138.647C587.433 145.639 585.687 154.399 585.687 164.928C585.687 175.175 587.392 183.634 590.8 190.304C594.25 196.975 598.869 201.938 604.66 205.193C610.491 208.448 616.959 210.076 624.063 210.076C631.619 210.076 637.573 208.528 641.926 205.434C646.279 202.3 649.318 198.824 651.043 195.006H652.152V211.944C652.152 218.012 650.283 222.372 646.546 225.024C642.85 227.677 638.148 229.003 632.44 229.003C626.65 229.003 622.194 227.958 619.073 225.868C615.994 223.819 613.92 221.548 612.852 219.057L588.582 222.252C590.143 229.244 594.558 235.191 601.826 240.094ZM647.039 183.915C643.589 188.496 638.703 190.787 632.379 190.787C625.931 190.787 621.004 188.456 617.595 183.794C614.187 179.133 612.482 172.804 612.482 164.807C612.482 156.931 614.166 150.501 617.534 145.518C620.942 140.535 625.89 138.044 632.379 138.044C638.744 138.044 643.651 140.475 647.101 145.337C650.55 150.2 652.275 156.69 652.275 164.807C652.275 172.965 650.529 179.334 647.039 183.915ZM698.966 211.402V118.815H725.206V211.402H698.966ZM763.967 207.182C770.948 211.201 779.284 213.21 788.976 213.21C797.394 213.21 804.683 211.723 810.843 208.749C817.003 205.736 821.828 201.536 825.318 196.151C828.85 190.767 830.821 184.538 831.232 177.465H806.47C805.689 182.408 803.759 186.226 800.679 188.918C797.599 191.57 793.801 192.896 789.284 192.896C783.165 192.896 778.258 190.485 774.562 185.663C770.907 180.801 769.079 173.949 769.079 165.108C769.079 156.348 770.927 149.577 774.623 144.795C778.319 140.013 783.206 137.622 789.284 137.622C794.088 137.622 797.969 139.048 800.926 141.902C803.923 144.714 805.771 148.432 806.47 153.053H831.232C830.862 145.9 828.871 139.671 825.257 134.367C821.684 129.062 816.777 124.943 810.535 122.01C804.334 119.076 797.107 117.61 788.852 117.61C779.284 117.61 771.03 119.639 764.09 123.698C757.15 127.716 751.791 133.322 748.013 140.515C744.276 147.668 742.408 155.986 742.408 165.47C742.408 174.833 744.256 183.111 747.951 190.304C751.688 197.498 757.027 203.123 763.967 207.182Z" fill="black"/>
<path fill-rule="evenodd" clip-rule="evenodd" d="M124.415 0.000201111C137.397 15.9006 151.716 30.6668 167.2 44.1277C156.882 77.5931 151.327 113.147 151.327 149.999C151.327 186.851 156.882 222.406 167.2 255.871C151.716 269.332 137.397 284.099 124.414 300C111.431 284.098 97.111 269.331 81.626 255.87C91.9437 222.405 97.4983 186.851 97.4983 149.999C97.4983 113.148 91.9438 77.5949 81.6264 44.1302C97.1115 30.6687 111.431 15.9015 124.415 0.000201111ZM52.0312 232.735C35.6398 221.246 18.2437 211.093 0.000967714 202.433C5.06107 185.847 7.78313 168.241 7.78314 150C7.78314 131.758 5.06112 114.153 0.00110963 97.5669C18.2439 88.9073 35.64 78.754 52.0316 67.2651C58.299 93.8252 61.6153 121.525 61.6153 149.999C61.6153 178.474 58.2989 206.174 52.0312 232.735ZM187.215 149.999C187.215 178.474 190.531 206.173 196.799 232.733C213.189 221.245 230.584 211.092 248.826 202.433C243.766 185.847 241.044 168.241 241.044 150C241.044 131.758 243.766 114.152 248.826 97.566C230.584 88.9067 213.189 78.7539 196.798 67.2656C190.531 93.8255 187.215 121.525 187.215 149.999Z" fill="black"/>
</svg>
